<svg xmlns="http://www.w3.org/2000/svg" xmlns:xlink="http://www.w3.org/1999/xlink" width="500" zoomAndPan="magnify" viewBox="0 0 375 374.999991" height="500" preserveAspectRatio="xMidYMid meet" version="1.0"><defs><clipPath id="b3a9551ac6"><path d="M 5.316406 5.316406 L 369.816406 5.316406 L 369.816406 369.816406 L 5.316406 369.816406 Z M 5.316406 5.316406 " clip-rule="nonzero"/></clipPath><clipPath id="6efc7ccd40"><path d="M 84 137 L 369.816406 137 L 369.816406 366 L 84 366 Z M 84 137 " clip-rule="nonzero"/></clipPath></defs><g clip-path="url(#b3a9551ac6)"><path fill="#fdc93b" d="M 369.917969 187.636719 C 369.917969 267.796875 318.195312 335.863281 246.289062 360.257812 C 240.300781 362.308594 234.148438 364.042969 227.898438 365.457031 C 225.746094 365.945312 223.582031 366.394531 221.402344 366.796875 C 221.214844 366.828125 221.027344 366.871094 220.839844 366.898438 C 210.070312 368.890625 198.96875 369.917969 187.636719 369.917969 C 180.519531 369.917969 173.492188 369.511719 166.589844 368.71875 C 75.832031 358.28125 5.359375 281.195312 5.359375 187.636719 C 5.359375 86.964844 86.964844 5.359375 187.636719 5.359375 C 262.558594 5.359375 326.914062 50.542969 354.933594 115.15625 C 355.320312 116.066406 355.710938 116.960938 356.085938 117.871094 C 359.78125 126.804688 362.8125 136.117188 365.066406 145.714844 C 366.164062 150.351562 367.074219 155.042969 367.792969 159.804688 C 368.054688 161.523438 368.300781 163.253906 368.515625 165.003906 C 369.441406 172.40625 369.917969 179.972656 369.917969 187.636719 Z M 369.917969 187.636719 " fill-opacity="1" fill-rule="nonzero"/></g><g clip-path="url(#6efc7ccd40)"><path fill="#f7a739" d="M 369.917969 187.636719 C 369.917969 267.796875 318.195312 335.863281 246.289062 360.257812 C 240.300781 362.308594 234.148438 364.042969 227.898438 365.457031 L 84.335938 265.171875 L 324.746094 137.445312 L 368.515625 165.003906 C 369.441406 172.40625 369.917969 179.972656 369.917969 187.636719 Z M 369.917969 187.636719 " fill-opacity="1" fill-rule="nonzero"/></g><path fill="#3c3f7e" d="M 84.335938 140.246094 L 84.335938 265.171875 C 84.335938 270.699219 128.898438 275.175781 183.855469 275.175781 C 238.8125 275.175781 283.375 270.699219 283.375 265.171875 L 283.375 140.246094 Z M 84.335938 140.246094 " fill-opacity="1" fill-rule="nonzero"/><path fill="#5560a9" d="M 325.28125 150.640625 L 186.179688 200.007812 C 184.679688 200.542969 183.046875 200.542969 181.558594 200.007812 L 42.457031 150.640625 C 36.0625 148.371094 36.425781 139.191406 42.992188 137.445312 L 182.09375 100.332031 C 183.261719 100.011719 184.492188 100.011719 185.660156 100.332031 L 324.761719 137.445312 C 331.300781 139.191406 331.675781 148.359375 325.28125 150.640625 Z M 325.28125 150.640625 " fill-opacity="1" fill-rule="nonzero"/><path fill="#e43626" d="M 283.953125 142.339844 C 294.589844 140.722656 305.734375 144.199219 312.636719 152.730469 C 320.359375 162.273438 316.851562 175.339844 314.730469 186.324219 C 310.570312 207.90625 311.179688 228.636719 319.550781 249.191406 C 320.589844 251.730469 324.777344 250.621094 323.722656 248.035156 C 318.207031 234.480469 315.492188 220.101562 316.316406 205.453125 C 317.109375 191.246094 323.117188 176.898438 321.457031 162.578125 C 319.363281 144.445312 298.949219 135.710938 282.78125 138.167969 C 280.054688 138.570312 281.222656 142.742188 283.953125 142.339844 Z M 283.953125 142.339844 " fill-opacity="1" fill-rule="nonzero"/><path fill="#e43626" d="M 314.28125 268.707031 C 314.65625 267.972656 315.335938 265.664062 315.957031 265.113281 C 316.300781 265.835938 316.375 268.230469 316.535156 269.027344 C 317.558594 269.125 321.441406 269.183594 322.351562 269.171875 C 322.335938 268.375 322.234375 266.210938 322.222656 265.417969 C 322.929688 266.183594 323.722656 268.332031 324.429688 269.097656 C 326.710938 268.910156 329.003906 268.535156 331.257812 268.015625 C 331.230469 267.8125 330.421875 263.742188 330.390625 263.714844 C 330.636719 263.84375 332.195312 266.859375 332.527344 267.699219 C 334.1875 267.265625 335.832031 266.730469 337.4375 266.125 C 335.402344 261.433594 333.523438 256.667969 330.984375 252.195312 C 329.511719 249.609375 327.964844 247.027344 326.019531 244.773438 C 324.328125 242.824219 321.757812 240.242188 318.945312 240.457031 C 317.140625 240.585938 315.695312 241.988281 314.699219 243.519531 C 314.671875 243.574219 314.628906 243.632812 314.597656 243.675781 C 312.417969 247.140625 311.769531 251.3125 310.875 255.226562 C 310.671875 256.105469 309.300781 263.914062 308.78125 267.324219 C 310.527344 267.929688 312.375 268.390625 314.28125 268.707031 Z M 314.28125 268.707031 " fill-opacity="1" fill-rule="nonzero"/></svg>